<svg width="24" height="24" viewBox="0 0 24 24" fill="none" xmlns="http://www.w3.org/2000/svg">
  <path d="M12 12c-1.5-1.5-3.5-2-5-1.5-1 .5-1.5 1.5-1.5 2.5 0 1.5 1 2.5 2.5 3l5 2.5" stroke="currentColor" stroke-width="2" stroke-linecap="round" stroke-linejoin="round"/>
  <path d="M12 12c1.5-1.5 3.5-2 5-1.5 1 .5 1.5 1.5 1.5 2.5 0 1.5-1 2.5-2.5 3l-5 2.5" stroke="currentColor" stroke-width="2" stroke-linecap="round" stroke-linejoin="round"/>
  <path d="M7.5 13.5L6 15M16.5 13.5L18 15" stroke="currentColor" stroke-width="2" stroke-linecap="round"/>
  <circle cx="8" cy="7" r="2" stroke="currentColor" stroke-width="2"/>
  <circle cx="16" cy="7" r="2" stroke="currentColor" stroke-width="2"/>
</svg>
